<svg xmlns="http://www.w3.org/2000/svg" height="512" width="512" xmlns:v="https://vecta.io/nano"><path d="M503.494 258.27l-53.529 47.996a3.05 3.05 0 0 0-.862 3.219l22.388 68.327a3.05 3.05 0 0 1-2.273 3.934l-70.394 14.718a3.05 3.05 0 0 0-2.36 2.36l-14.718 70.394a3.05 3.05 0 0 1-3.934 2.273l-68.326-22.389a3.05 3.05 0 0 0-3.219.862l-47.996 53.529a3.05 3.05 0 0 1-4.54 0l-47.996-53.529a3.05 3.05 0 0 0-3.219-.862l-68.327 22.388a3.05 3.05 0 0 1-3.934-2.273l-14.718-70.394a3.05 3.05 0 0 0-2.36-2.36l-70.394-14.718a3.05 3.05 0 0 1-2.273-3.934l22.389-68.326a3.05 3.05 0 0 0-.862-3.219L8.506 258.27a3.05 3.05 0 0 1 0-4.54l53.529-47.996a3.05 3.05 0 0 0 .862-3.219l-22.388-68.327a3.05 3.05 0 0 1 2.273-3.934l70.394-14.718a3.05 3.05 0 0 0 2.36-2.36l14.718-70.394a3.05 3.05 0 0 1 3.934-2.273l68.326 22.389a3.05 3.05 0 0 0 3.219-.862l47.997-53.53a3.05 3.05 0 0 1 4.54 0l47.996 53.529a3.05 3.05 0 0 0 3.219.862l68.327-22.388a3.05 3.05 0 0 1 3.934 2.273l14.718 70.394a3.05 3.05 0 0 0 2.36 2.36l70.394 14.718a3.05 3.05 0 0 1 2.273 3.934l-22.389 68.326a3.05 3.05 0 0 0 .862 3.219l53.529 47.996a3.05 3.05 0 0 1 .001 4.541z" fill="#fece85"/><path d="M172.683 54.272l-41.049-13.457c.729-.45 1.658-.599 2.557-.31l41.049 13.447c-.759.479-1.688.599-2.557.32zm109.491 385.305l26.444 9.391a2.96 2.96 0 0 0-2.348.999l-48.002 53.527a3.05 3.05 0 0 1-4.536 0l-16.364-18.252 41.588-44.805a3.04 3.04 0 0 1 3.218-.86zm91.518-330.99L360.056 46.32l17.752-5.814a3.06 3.06 0 0 1 3.936 2.278l14.715 70.39c.1.5.33.949.649 1.319l-21.059-3.546a3.06 3.06 0 0 1-2.357-2.36zm76.274 197.683c-.899.799-1.239 2.068-.859 3.217l22.388 68.322a3.06 3.06 0 0 1-2.278 3.936l-70.39 14.715c-1.189.25-2.118 1.179-2.368 2.368l-14.715 70.39a3.06 3.06 0 0 1-3.936 2.278L356 464.352a3.03 3.03 0 0 0 1.169-1.828l15.654-81.279c.25-1.189 1.169-2.118 2.358-2.368l61.928-11.718a3.04 3.04 0 0 0 2.268-3.926l-20.1-62.378a3.04 3.04 0 0 1 .859-3.217l46.034-39.371a3.05 3.05 0 0 0 0-4.535l-47.632-47.792c-.899-.809-1.239-2.068-.869-3.217l23.996-77.163a3.15 3.15 0 0 0 .15-1.039l27.403 5.734a3.06 3.06 0 0 1 2.278 3.936l-22.388 68.322c-.38 1.149-.04 2.418.859 3.217l53.527 48.002a3.05 3.05 0 0 1 0 4.535z" fill="#fec165"/><circle cx="256" cy="256" fill="#fdb441" r="156.241"/><path d="M412.244 256c0 86.294-69.95 156.244-156.244 156.244-17.532 0-34.386-2.887-50.12-8.222 10.17 2.088 20.699 3.177 31.488 3.177 86.294 0 156.244-69.95 156.244-156.234 0-68.761-44.416-127.143-106.124-148.032C358.687 117.498 412.244 180.495 412.244 256z" fill="#fea613"/><g fill="#fb8801"><circle cx="173.076" cy="274.124" r="21.787"/><circle cx="338.924" cy="274.124" r="21.787"/></g><path d="M130.751 336.278c-2.236-3.482-6.872-4.49-10.353-2.255s-4.491 6.872-2.255 10.353c30.31 47.186 81.845 75.357 137.857 75.357 90.283 0 163.734-73.451 163.734-163.733S346.283 92.267 256 92.267 92.267 165.717 92.267 256c0 19.163 3.282 37.936 9.754 55.795 1.411 3.89 5.706 5.9 9.597 4.491s5.901-5.707 4.491-9.597c-5.878-16.217-8.858-33.271-8.858-50.689 0-82.02 66.728-148.748 148.748-148.748S404.748 173.98 404.748 256 338.021 404.748 256 404.748c-50.887 0-97.709-25.596-125.249-68.47zm377.745-88.127l-51.369-46.059 21.485-65.57a10.55 10.55 0 0 0-.89-8.556c-1.498-2.593-4.039-4.432-6.97-5.045l-67.549-14.124-2.21-10.572a7.5 7.5 0 0 0-8.867-5.801c-4.051.847-6.648 4.816-5.802 8.867l2.807 13.423c.859 4.098 4.063 7.3 8.16 8.156l65.535 13.702-20.842 63.608c-1.302 3.97-.133 8.339 2.979 11.132L494.802 256l-49.839 44.687c-3.112 2.791-4.282 7.16-2.98 11.131l20.842 63.609-65.536 13.702a10.54 10.54 0 0 0-8.16 8.161l-13.703 65.535-63.608-20.842a10.54 10.54 0 0 0-11.13 2.98L256 494.803l-44.687-49.839c-2.79-3.112-7.161-4.282-11.131-2.98l-63.609 20.842-13.702-65.535a10.54 10.54 0 0 0-8.161-8.162l-65.535-13.702 20.842-63.608c1.302-3.972.132-8.342-2.98-11.132L17.197 256l49.839-44.687c3.112-2.79 4.282-7.159 2.98-11.131l-20.842-63.609 65.535-13.702a10.54 10.54 0 0 0 8.162-8.161l13.702-65.535 63.608 20.842c3.975 1.302 8.342.132 11.132-2.98L256 17.197l44.688 49.841a10.54 10.54 0 0 0 11.13 2.978l63.61-20.842 3.789 18.134a7.5 7.5 0 0 0 8.867 5.801c4.051-.847 6.648-4.817 5.802-8.867L389.08 41.25c-.613-2.932-2.451-5.472-5.044-6.971a10.55 10.55 0 0 0-8.557-.89l-65.571 21.485-46.059-51.37C261.852 1.277 258.991 0 256 0s-5.852 1.277-7.849 3.504l-46.059 51.37-65.57-21.485c-2.844-.932-5.964-.608-8.556.89a10.56 10.56 0 0 0-5.045 6.969l-14.123 67.549-67.55 14.123a10.56 10.56 0 0 0-6.97 5.045c-1.498 2.592-1.822 5.711-.89 8.556l21.485 65.57-51.37 46.06A10.56 10.56 0 0 0 0 256c0 2.991 1.277 5.852 3.504 7.849l51.37 46.059-21.485 65.57a10.55 10.55 0 0 0 .89 8.556c1.498 2.593 4.038 4.431 6.97 5.045l67.549 14.123 14.123 67.55c.614 2.931 2.452 5.472 5.045 6.969a10.56 10.56 0 0 0 8.556.89l65.57-21.485 46.06 51.37c1.997 2.226 4.857 3.503 7.848 3.503s5.852-1.277 7.849-3.504l46.06-51.37 65.568 21.485a10.56 10.56 0 0 0 8.558-.89c2.592-1.498 4.431-4.039 5.043-6.969l14.125-67.549 67.55-14.124c2.931-.613 5.471-2.452 6.969-5.044a10.55 10.55 0 0 0 .89-8.556l-21.484-65.57 51.367-46.058c2.228-1.997 3.506-4.858 3.506-7.85a10.56 10.56 0 0 0-3.505-7.849zm-298.06-9.99v-18.886c0-4.138-3.355-7.492-7.492-7.492s-7.493 3.354-7.493 7.492v18.886c0 4.138 3.355 7.492 7.493 7.492s7.492-3.354 7.492-7.492zm106.113 0v-18.886c0-4.138-3.354-7.492-7.493-7.492s-7.492 3.354-7.492 7.492v18.886c0 4.138 3.354 7.492 7.492 7.492s7.493-3.354 7.493-7.492z"/><path d="M256 337.991c19.033 0 35.877-12.12 41.913-30.159 1.313-3.924-.804-8.17-4.728-9.483s-8.17.803-9.483 4.728c-3.989 11.92-15.122 19.929-27.703 19.929s-23.715-8.01-27.702-19.931c-1.313-3.924-5.559-6.041-9.483-4.729s-6.041 5.558-4.729 9.483c6.037 18.041 22.881 30.162 41.915 30.162z"/></svg>