<svg xmlns="http://www.w3.org/2000/svg" viewBox="0 0 512 512" xmlns:v="https://vecta.io/nano"><path d="M146.125 119.398c5.444 0 10.615-2.628 13.815-7.031 5.53-7.612 3.831-18.304-3.789-23.842-7.347-5.333-18.5-3.55-23.834 3.789-5.521 7.62-3.823 18.304 3.789 23.834 2.928 2.124 6.401 3.25 10.019 3.25zM65.877 299.196c-3.686 2.688-6.118 6.639-6.827 11.145s.375 9.011 3.063 12.689a17.11 17.11 0 0 0 13.807 7.031c3.618 0 7.083-1.118 10.035-3.26 7.586-5.53 9.284-16.222 3.755-23.842-5.315-7.33-16.503-9.114-23.833-3.763zm10.044 22.331l-.009-8.525.017-.009-.008 8.534zm427.546 173.406H256C124.245 494.933 17.067 387.746 17.067 256 17.067 124.245 124.245 17.067 256 17.067c131.746 0 238.933 107.179 238.933 238.933 0 84.326-43.128 160.785-115.354 204.527a8.54 8.54 0 0 0-2.884 11.725c2.449 4.036 7.723 5.316 11.716 2.876C465.792 428.271 512 346.342 512 256 512 114.842 397.158 0 256 0S0 114.842 0 256s114.842 256 256 256h247.467a8.54 8.54 0 0 0 8.533-8.533c0-4.719-3.823-8.534-8.533-8.534zm-377.31-212.838c29.653 0 55.748-18.97 64.922-47.198 11.622-35.797-8.03-74.385-43.836-86.016-6.852-2.227-13.952-3.354-21.103-3.354-29.662 0-55.74 18.961-64.913 47.181-11.631 35.797 8.03 74.394 43.827 86.033 6.852 2.219 13.952 3.354 21.103 3.354zm-48.691-84.113c6.869-21.171 26.428-35.388 48.674-35.388 5.359 0 10.684.845 15.838 2.517 26.846 8.721 41.583 37.666 32.87 64.512-6.886 21.171-26.453 35.405-48.691 35.405a51.12 51.12 0 0 1-15.829-2.526c-26.846-8.721-41.592-37.666-32.862-64.52zm177.092 263.97a17.15 17.15 0 0 0 5.282-.836c8.934-2.91 13.85-12.552 10.957-21.513-2.85-8.755-12.74-13.807-21.513-10.948-4.326 1.408-7.851 4.412-9.933 8.482-2.065 4.062-2.432 8.687-1.024 13.013 2.287 7.057 8.798 11.802 16.231 11.802zM135.62 421.675c11.75 8.542 25.617 13.047 40.09 13.047 21.803 0 42.462-10.522 55.279-28.143 22.11-30.464 15.334-73.233-15.113-95.36-11.75-8.533-25.609-13.039-40.073-13.039-21.82 0-42.47 10.522-55.27 28.143-10.726 14.754-15.061 32.794-12.211 50.799 2.85 18.014 12.544 33.835 27.298 44.553zm-1.288-85.317c9.609-13.227 25.105-21.111 41.472-21.111 10.846 0 21.231 3.379 30.046 9.779 22.827 16.589 27.904 48.683 11.332 71.518-9.609 13.227-25.114 21.112-41.472 21.112-10.846 0-21.239-3.388-30.054-9.788-11.068-8.038-18.347-19.908-20.489-33.408-2.133-13.509 1.118-27.042 9.165-38.102zm201.967 98.364h.009c14.464 0 28.322-4.514 40.064-13.047 30.447-22.118 37.231-64.896 15.104-95.351-12.8-17.63-33.468-28.143-55.279-28.143-14.473 0-28.331 4.506-40.073 13.039-30.455 22.127-37.231 64.896-15.104 95.351 12.8 17.63 33.467 28.143 55.279 28.151zM306.15 325.026c8.815-6.4 19.191-9.779 30.046-9.779a51.44 51.44 0 0 1 41.472 21.103c16.597 22.844 11.511 54.929-11.332 71.518-8.806 6.4-19.191 9.788-30.029 9.788h-.009c-16.367 0-31.872-7.893-41.481-21.12-16.579-22.836-11.502-54.921 11.333-71.51zM221.867 256c0 18.816 15.3 34.133 34.133 34.133 18.825 0 34.133-15.317 34.133-34.133 0-18.825-15.309-34.133-34.133-34.133-18.833 0-34.133 15.308-34.133 34.133zm51.2 0c0 9.412-7.663 17.067-17.067 17.067-9.412 0-17.067-7.654-17.067-17.067s7.654-17.067 17.067-17.067c9.404 0 17.067 7.655 17.067 17.067zm95.121-134.912c7.424 0 13.952-4.745 16.222-11.793 2.91-8.943-1.997-18.594-10.982-21.513-8.789-2.833-18.645 2.227-21.47 10.982-2.901 8.943 2.022 18.586 10.965 21.487a17.01 17.01 0 0 0 5.265.837zm-47.275 113.809c9.173 28.228 35.26 47.189 64.913 47.189 7.151 0 14.251-1.135 21.111-3.354 17.348-5.641 31.462-17.69 39.731-33.929 8.286-16.247 9.737-34.748 4.105-52.096-9.173-28.228-35.26-47.189-64.913-47.189-7.151 0-14.251 1.126-21.112 3.354-35.797 11.64-55.457 50.228-43.835 86.025zm49.109-69.794c5.154-1.673 10.479-2.517 15.838-2.517 22.238 0 41.796 14.225 48.674 35.396 4.233 13.013 3.149 26.889-3.063 39.066-6.221 12.186-16.794 21.222-29.798 25.446-5.163 1.681-10.487 2.526-15.846 2.526-22.238 0-41.796-14.225-48.683-35.396-8.713-26.846 6.033-55.791 32.878-64.521zM256 51.2c-37.649 0-68.267 30.618-68.267 68.267 0 37.64 30.618 68.267 68.267 68.267 37.641 0 68.267-30.626 68.267-68.267 0-37.649-30.626-68.267-68.267-68.267zm0 119.467c-28.237 0-51.2-22.972-51.2-51.2 0-28.237 22.963-51.2 51.2-51.2 28.228 0 51.2 22.963 51.2 51.2 0 28.228-22.972 51.2-51.2 51.2zm162.133 145.066c0 9.412 7.654 17.067 17.067 17.067 9.404 0 17.067-7.654 17.067-17.067s-7.663-17.067-17.067-17.067a17.09 17.09 0 0 0-17.067 17.067z"/></svg>