<svg xmlns="http://www.w3.org/2000/svg" height="512" viewBox="0 0 497 497" width="512" xmlns:v="https://vecta.io/nano"><path d="M248.5 0C182.123 0 119.719 25.849 72.784 72.784S0 182.124 0 248.5s25.849 128.78 72.784 175.716S182.123 497 248.5 497c17.487 0 34.693-1.812 51.418-5.313V5.313C283.193 1.812 265.987 0 248.5 0z" fill="#d4d4d5"/><path d="M497 248.5c0-66.376-25.849-128.78-72.784-175.716-34.57-34.57-77.538-57.683-124.298-67.471-46.761 9.788-89.728 32.901-124.298 67.471-46.935 46.936-72.784 109.34-72.784 175.716s25.849 128.78 72.784 175.716c34.57 34.57 77.538 57.683 124.298 67.471 46.761-9.788 89.728-32.901 124.298-67.471C471.151 377.28 497 314.876 497 248.5z" fill="#efedee"/><g fill="#ff8e9e"><ellipse cx="169.331" cy="220.763" rx="29.212" ry="23.263" transform="matrix(1 .003 -.003 1 .693 -.529)"/><ellipse cx="327.669" cy="221.259" rx="29.212" ry="23.263" transform="matrix(-1 -.003 .003 -1 654.644 443.544)"/></g><path d="M184 178.5a7.5 7.5 0 0 0-7.5 7.5v10a7.5 7.5 0 1 0 15 0v-10a7.5 7.5 0 0 0-7.5-7.5zm128 0a7.5 7.5 0 0 0-7.5 7.5v10a7.5 7.5 0 1 0 15 0v-10a7.5 7.5 0 0 0-7.5-7.5zm-44.265 28.734a7.5 7.5 0 0 0-10.001 3.531c-1.666 3.484-5.291 5.735-9.234 5.735s-7.568-2.251-9.234-5.735c-1.787-3.737-6.266-5.317-10.001-3.531a7.5 7.5 0 0 0-3.531 10.001c4.144 8.666 13.08 14.265 22.766 14.265s18.623-5.599 22.766-14.265a7.5 7.5 0 0 0-3.531-10.001z" fill="#313d40"/><g fill="#d4d4d5"><circle cx="396.336" cy="296.5" r="45"/><circle cx="176.335" cy="116.5" r="30"/><circle cx="304.5" cy="413.5" r="15"/></g><circle cx="60" cy="248.5" fill="#b9bbbc" r="15"/><circle cx="366.336" cy="101.5" fill="#d4d4d5" r="15"/><path d="M175.962 424.553l-61.848-101.686C99.476 333.808 90 351.275 90 370.956c0 33.137 26.863 60 60 60 9.437 0 18.019-2.521 25.962-6.403-.227-.226.227.227 0 0z" fill="#b9bbbc"/><path d="M210.001 370.956c0-33.137-26.863-60-60-60a59.73 59.73 0 0 0-35.886 11.911c11.814 37.841 33.016 72.854 61.848 101.686.227.227-.228-.226 0 0 19.95-9.748 34.038-29.896 34.038-53.597z" fill="#d4d4d5"/><path d="M40.416 40.416c4.627-1.191 8.983-3.058 12.956-5.49a7.51 7.51 0 0 0 0-12.852c-3.973-2.431-8.329-4.298-12.956-5.489-1.191-4.627-3.058-8.983-5.49-12.956a7.51 7.51 0 0 0-12.852 0 47.5 47.5 0 0 0-5.49 12.957c-4.627 1.191-8.983 3.058-12.956 5.489a7.51 7.51 0 0 0 0 12.852c3.973 2.432 8.329 4.299 12.956 5.49 1.191 4.627 3.058 8.983 5.49 12.956a7.51 7.51 0 0 0 12.852 0c2.432-3.974 4.299-8.33 5.49-12.957zm400.049 400.199c6.494-1.672 12.608-4.292 18.184-7.705 6.789-4.155 6.789-13.883 0-18.038-5.576-3.413-11.69-6.033-18.184-7.704-1.672-6.494-4.292-12.608-7.705-18.185-4.155-6.789-13.883-6.789-18.038 0a66.65 66.65 0 0 0-7.705 18.185c-6.494 1.672-12.608 4.292-18.184 7.704-6.789 4.155-6.789 13.883 0 18.038 5.576 3.413 11.69 6.033 18.184 7.705a66.67 66.67 0 0 0 7.705 18.184c4.155 6.789 13.883 6.789 18.038 0a66.68 66.68 0 0 0 7.705-18.184z" fill="#ffce71"/></svg>