<svg xmlns="http://www.w3.org/2000/svg" viewBox="0 0 512 512" xmlns:v="https://vecta.io/nano"><path d="M298.667 102.4a8.55 8.55 0 0 1-8.533-8.533 8.54 8.54 0 0 0-8.533-8.533 8.54 8.54 0 0 0-8.533 8.533c0 14.114 11.486 25.6 25.6 25.6a8.54 8.54 0 0 0 8.533-8.533 8.54 8.54 0 0 0-8.534-8.534zm68.266 17.067a8.54 8.54 0 0 0 8.533-8.533 8.55 8.55 0 0 1 8.533-8.533 8.54 8.54 0 0 0 8.533-8.533 8.54 8.54 0 0 0-8.533-8.533c-14.114 0-25.6 11.486-25.6 25.6a8.54 8.54 0 0 0 8.534 8.532zm-290.133 0a8.54 8.54 0 0 0 8.533-8.533c0-9.412 7.654-17.067 17.067-17.067 1.843 0 3.738.358 5.786 1.101 2.705.998 5.717.538 8.021-1.186 2.304-1.715 3.584-4.489 3.405-7.356-.009-.213-.12-.879-.145-1.092 0-9.412 7.654-17.067 17.067-17.067a17.02 17.02 0 0 1 6.673 1.357c2.987 1.271 6.434.742 8.9-1.382 2.466-2.108 3.507-5.444 2.705-8.593-.828-3.217-1.212-5.905-1.212-8.448 0-18.825 15.309-34.133 34.133-34.133 14.046 0 26.479 8.491 31.676 21.623 1.126 2.842 3.686 4.873 6.724 5.308 3.021.444 6.059-.794 7.936-3.2 3.302-4.233 8.183-6.664 13.397-6.664a17.05 17.05 0 0 1 15.727 10.419c1.289 3.063 4.241 5.086 7.561 5.205 3.405.188 6.4-1.698 7.902-4.651 8.806-17.297 26.283-28.041 45.611-28.041 28.237 0 51.2 22.963 51.2 51.021l-.043 1.05a8.51 8.51 0 0 0 3.14 6.605c1.988 1.63 4.608 2.261 7.108 1.749a34.13 34.13 0 0 1 6.861-.691c18.825 0 34.133 15.309 34.133 34.133a8.54 8.54 0 0 0 8.533 8.533 8.54 8.54 0 0 0 8.533-8.533c0-28.237-22.963-51.2-51.2-51.2h-.529C387.789 26.103 359.023 0 324.267 0c-21.274 0-40.858 9.745-53.649 26.103-6.178-5.7-14.379-9.037-23.151-9.037-6.34 0-12.425 1.758-17.69 5.001C220.373 8.38 204.86 0 187.733 0c-28.237 0-51.2 22.963-51.2 51.2-15.881 0-29.269 10.906-33.058 25.617-19.225-.623-35.208 14.933-35.208 34.116a8.54 8.54 0 0 0 8.533 8.534zm259.533-27.068a8.51 8.51 0 0 0 12.066 0c6.443-6.451 10.001-15.019 10.001-24.132a33.9 33.9 0 0 0-10.001-24.132c-13.295-13.312-34.953-13.312-48.273-.009a8.54 8.54 0 0 0 0 12.066c3.336 3.337 8.738 3.337 12.066 0 6.656-6.639 17.485-6.647 24.141.009a16.92 16.92 0 0 1 5.001 12.066c0 4.557-1.775 8.841-5.001 12.066-3.337 3.336-3.337 8.738 0 12.066zm105.207 46.959a8.52 8.52 0 0 0-6.34-2.825H196.267a8.54 8.54 0 0 0-8.533 8.533 8.54 8.54 0 0 0 8.533 8.533H425.72l-33.11 314.557c-1.707 12.356-9.463 26.778-25.677 26.778H145.067c-16.247 0-23.987-14.413-25.643-26.487L86.281 153.6h58.786c18.825 0 34.133-15.309 34.133-34.133s-15.309-34.133-34.133-34.133a8.54 8.54 0 0 0-8.533 8.533 8.54 8.54 0 0 0 8.533 8.533c9.412 0 17.067 7.654 17.067 17.067s-7.654 17.067-17.067 17.067H76.8c-2.415 0-4.727 1.024-6.34 2.825-1.621 1.801-2.398 4.198-2.15 6.596l34.167 324.54c3.405 24.823 20.523 41.506 42.59 41.506h221.867c22.025 0 39.134-16.674 42.624-41.779l34.133-324.267c.247-2.399-.529-4.797-2.151-6.597zm-297.224 31.343c-4.693.41-8.158 4.557-7.748 9.25l25.6 290.133c.393 4.437 4.113 7.782 8.491 7.782.247 0 .503-.009.759-.034 4.693-.41 8.158-4.557 7.748-9.25l-25.6-290.133c-.41-4.693-4.497-8.098-9.25-7.748zm43.417 153.566c0 24.141 12.621 45.338 31.59 57.481l2.543 87.834a8.54 8.54 0 0 0 8.533 8.286h.247c4.71-.145 8.422-4.07 8.286-8.781l-2.313-79.394c6.153 1.826 12.646 2.842 19.379 2.842s13.227-1.015 19.379-2.842l-2.313 79.394c-.137 4.71 3.576 8.636 8.286 8.781h.247a8.54 8.54 0 0 0 8.533-8.286l2.543-87.834c18.97-12.143 31.59-33.34 31.59-57.481 0-22.536-11.025-42.487-27.904-54.929l2.304-89.924c.119-4.702-3.601-8.619-8.32-8.747-4.762-.401-8.627 3.601-8.747 8.32l-2.074 81.28C272.179 257.553 264.277 256 256 256s-16.179 1.553-23.526 4.267l-2.074-81.28a8.54 8.54 0 0 0-8.533-8.32h-.213c-4.719.128-8.439 4.045-8.32 8.747l2.304 89.924c-16.88 12.441-27.905 32.392-27.905 54.929zm68.267-51.2c28.237 0 51.2 22.963 51.2 51.2s-22.963 51.2-51.2 51.2-51.2-22.963-51.2-51.2 22.963-51.2 51.2-51.2zm85.342 204.8c4.378 0 8.098-3.345 8.491-7.782l25.6-290.133c.41-4.693-3.055-8.841-7.748-9.25-4.642-.358-8.832 3.063-9.25 7.748l-25.6 290.133c-.41 4.693 3.055 8.841 7.748 9.25.255.025.511.034.759.034z"/><path d="M213.333 110.933a8.54 8.54 0 0 0 8.533-8.533c0-9.412 7.654-17.067 17.067-17.067a8.54 8.54 0 0 0 8.533-8.533 8.54 8.54 0 0 0-8.533-8.533c-18.825 0-34.133 15.309-34.133 34.133a8.54 8.54 0 0 0 8.533 8.533zm-17.066-76.8c-14.114 0-25.6 11.486-25.6 25.6a8.54 8.54 0 0 0 8.533 8.533 8.54 8.54 0 0 0 8.533-8.533 8.55 8.55 0 0 1 8.533-8.533 8.54 8.54 0 0 0 8.533-8.533 8.54 8.54 0 0 0-8.532-8.534z"/></svg>