<svg xmlns="http://www.w3.org/2000/svg" viewBox="0 0 60 60" xmlns:v="https://vecta.io/nano"><path d="M53 12c0-.1 0-.2-.1-.3v-.1c-.1-.1-.1-.2-.2-.3l-11-11c-.1-.1-.2-.1-.3-.2h-.1c-.1 0-.2-.1-.3-.1h0H8a.94.94 0 0 0-1 1v58a.94.94 0 0 0 1 1h5 6 5 9 19a.94.94 0 0 0 1-1V12h0zm-3.4-1H42V3.4l7.6 7.6zM14 23h4v29h-4V23zm.5-2l1.5-3.5 1.5 3.5h-3zM14 58v-4h4v4h-4zm11 0v-6h4v-2h-4v-6h4v-2h-4v-7h4v-2h-4v-6h4v-2h-4v-5h7v38h-7zm9 0V19a.94.94 0 0 0-1-1h-9a.94.94 0 0 0-1 1v39h-3v-5-31c0-.3-.1-.6-.3-.7l-2.8-6.6c-.1-.4-.5-.6-.9-.6s-.7.2-.9.6l-2.8 6.6c-.2.2-.3.4-.3.7v31 5H9V2h31v10a.94.94 0 0 0 1 1h10v45H34zM12 5h8v2h-8zm26 17h9v2h-9zm0 5h9v2h-9zm0 5h9v2h-9zm0 5h9v2h-9zm0 5h9v2h-9zm0 5h9v2h-9zm0 5h9v2h-9zM12 9h16v2H12z"/></svg>