<?xml version="1.0" standalone="no"?>
<!DOCTYPE svg PUBLIC "-//W3C//DTD SVG 20010904//EN"
 "http://www.w3.org/TR/2001/REC-SVG-20010904/DTD/svg10.dtd">
<svg version="1.0" xmlns="http://www.w3.org/2000/svg"
 width="512.000000pt" height="512.000000pt" viewBox="0 0 512.000000 512.000000"
 preserveAspectRatio="xMidYMid meet">
<metadata>
Created by potrace 1.14, written by Peter Selinger 2001-2017
</metadata>
<g transform="translate(0.000000,512.000000) scale(0.100000,-0.100000)"
fill="#000000" stroke="none">
<path d="M213 5079 c-44 -9 -80 -34 -103 -72 -19 -31 -20 -58 -20 -947 l0
-915 24 -50 c13 -27 32 -59 42 -71 16 -17 632 -490 728 -559 16 -11 33 -24 40
-30 6 -5 32 -26 58 -45 l47 -35 1 -228 c0 -136 4 -236 10 -247 6 -11 23 -26
38 -34 26 -14 27 -16 27 -106 1 -88 0 -93 -24 -108 -53 -32 -51 2 -51 -734 0
-672 0 -689 21 -743 14 -37 37 -72 71 -105 l51 -50 1753 0 1753 0 49 48 c27
27 57 63 66 81 9 17 67 229 127 469 117 461 121 492 83 546 -24 34 -102 75
-133 70 -39 -7 -84 -32 -132 -77 -26 -23 -84 -76 -129 -117 -45 -41 -88 -80
-94 -85 -6 -6 -30 -28 -53 -49 l-43 -38 0 111 c0 93 2 111 15 111 9 0 26 10
39 23 22 22 22 25 21 287 -1 275 -4 298 -48 390 -22 47 -115 144 -276 290 -52
47 -106 96 -121 110 -14 14 -66 61 -114 105 -49 44 -107 97 -130 119 -22 21
-76 70 -120 110 -43 39 -93 85 -111 101 -39 37 -122 114 -249 230 -55 50 -113
103 -130 119 -16 15 -65 60 -108 99 l-78 70 0 403 c0 261 -4 411 -11 426 -5
13 -23 30 -38 39 -28 16 -28 17 -27 119 1 96 2 103 23 111 53 19 54 28 51 411
l-3 355 -27 35 c-39 50 -98 70 -155 51 -44 -15 -60 -31 -223 -223 -21 -25 -48
-56 -60 -70 -12 -14 -41 -47 -64 -74 -22 -26 -49 -58 -60 -70 -10 -11 -37 -43
-60 -70 -22 -27 -46 -54 -51 -60 -15 -16 -129 -150 -133 -156 -2 -3 -281 -5
-620 -6 l-617 -1 -23 26 c-13 14 -42 48 -65 75 -23 27 -50 58 -60 70 -29 32
-97 112 -178 206 -83 97 -169 198 -184 214 -6 6 -31 36 -57 67 -54 63 -105 89
-155 78z"/>
</g>
</svg>
